<?xml version="1.0" standalone="no"?>
<!DOCTYPE svg PUBLIC "-//W3C//DTD SVG 20010904//EN"
 "http://www.w3.org/TR/2001/REC-SVG-20010904/DTD/svg10.dtd">
<svg version="1.0" xmlns="http://www.w3.org/2000/svg"
 width="504.000000pt" height="504.000000pt" viewBox="0 0 504.000000 504.000000"
 preserveAspectRatio="xMidYMid meet">

<g transform="translate(0.000000,504.000000) scale(0.100000,-0.100000)"
fill="#000000" stroke="none">
<path d="M2205 4924 c-433 -58 -838 -222 -1171 -472 -466 -350 -767 -852 -876
-1462 -20 -112 -23 -157 -22 -435 0 -250 3 -329 17 -410 72 -408 241 -791 484
-1095 210 -263 475 -473 798 -630 256 -125 509 -200 783 -231 163 -18 578 -7
727 20 625 112 1185 466 1526 963 220 321 344 650 400 1058 20 145 17 546 -5
695 -40 273 -121 536 -237 768 -298 593 -912 1056 -1589 1196 -246 51 -606 66
-835 35z m880 -961 c34 -11 68 -34 108 -71 78 -75 105 -77 343 -26 147 31 200
38 295 39 113 0 116 -1 191 -38 90 -44 154 -109 197 -201 73 -155 78 -409 14
-708 l-27 -127 -46 47 c-97 102 -207 155 -320 156 -92 1 -146 -22 -228 -98
l-55 -52 13 -155 c33 -395 -56 -760 -243 -994 -221 -276 -639 -421 -1037 -360
-276 42 -513 159 -698 344 -167 166 -267 357 -326 622 -57 257 -55 504 4 749
l31 124 -32 64 c-23 47 -59 92 -137 169 -93 94 -103 107 -88 118 31 23 199 73
366 109 572 124 1346 286 1410 295 41 6 86 13 100 15 38 5 109 -4 165 -21z"/>
<path d="M2845 3679 c-44 -11 -158 -38 -252 -61 -199 -47 -202 -50 -129 -123
60 -60 105 -78 196 -79 87 -1 141 20 202 79 41 41 98 145 98 182 0 28 -8 28
-115 2z"/>
</g>
</svg>
